<?xml version="1.0" standalone="no"?><!DOCTYPE svg PUBLIC "-//W3C//DTD SVG 1.1//EN" "http://www.w3.org/Graphics/SVG/1.1/DTD/svg11.dtd">
<svg t="1604213744770" class="icon" viewBox="0 0 1024 1024" version="1.1" xmlns="http://www.w3.org/2000/svg" p-id="2796"
     width="200" height="200"><defs><style type="text/css"></style></defs><path d="M373.837 1024c-68.563-139.627-78.21-231.542-37.327-299.86 13.739-19.845 22.074-44.07 25.005-72.675 47.26 5.473 72.622 23.899 76.087 55.278 79.406-87.323 93.864-226.95 83.02-279.367 180.608 122.23 260.014 391.046 155.308 586.57C1231.88 706.63 813.056 249.25 740.769 200.312c25.3 52.305 28.914 139.628-21.577 181.493C636.172 74.604 379.507 0 379.507 0c25.3 157.137-35.768 343.42-144.089 472.834-3.614-62.855-7.228-104.72-43.153-167.576-7.448 115.047-97.916 205.85-122.887 321.12C36.848 783.404 153.58 901.77 373.837 1024z" p-id="2797"></path></svg>